<svg width="282" height="565" viewBox="0 0 282 565" fill="none" xmlns="http://www.w3.org/2000/svg">
<path d="M184.727 23.6789C184.727 23.5246 185.262 21.0119 187.21 16.8365C188.159 14.8034 190.9 14.1169 193.094 14.6924C197.971 15.9716 201.97 20.1071 206.942 19.597C212.694 19.007 216.766 12.5889 221.664 11.9284C225.938 11.352 226.395 21.7688 227.682 29.7143C229.393 40.2731 245.379 35.9489 248.504 39.7724C257.843 51.1972 239.24 79.6239 236.441 94.8974C235.542 99.8032 246.171 100.904 253.856 102.104C266.17 104.027 257.055 132.389 258.122 154.728C268.577 170.629 268.578 186.173 267.966 191.832C267.923 194.584 268.422 197.095 270.806 203.399" stroke="#FF5C25" stroke-width="8" stroke-linecap="round"/>
<path d="M204.969 34.6921C205.272 34.6921 208.885 34.6921 215.04 35.6245C217.862 36.0521 219.572 38.4217 220.559 41.7062C222.863 49.3719 220.833 56.7601 220.947 61.2349C221.09 66.8409 229.218 69.3265 231.288 74.1133C236.284 85.6719 227.941 101.466 229.557 111.929C230.349 117.053 238.842 117.003 241.646 120.869C247.869 129.451 249.91 141.677 252.604 162.724C256.901 176.156 261.401 186.957 269.824 192.668C272.079 193.922 274.17 195.388 277.182 200.538" stroke="#FF5C25" stroke-width="8" stroke-linecap="round"/>
<path d="M193.37 36.7576C193.37 36.449 193.44 33.7693 194.719 29.338C196.035 24.7817 203.269 24.4014 208.186 24.6273C210.65 24.7405 212.571 27.4818 215.126 27.9816C226.747 30.2543 234.367 21.0798 238.874 21.4657C257.596 23.0688 260.201 68.4455 266.99 79.8162C275.072 93.3527 267.366 117.741 268.898 128.843C269.265 131.502 270.701 133.713 270.511 136.456C269.527 150.702 251.75 161.024 248.243 174.7C246.359 186.45 250.207 196.594 253.86 203.16C255.524 206.095 256.805 208.222 258.141 214.451" stroke="#FF5C25" stroke-width="8" stroke-linecap="round"/>
<path d="M189.021 29.4154C188.404 26.2083 184.825 15.305 178.835 6.7164C175.924 2.542 168.828 4.15426 163.64 5.19601C161.1 5.70608 159.033 7.2846 157.384 9.74529C153.692 15.2554 152.942 22.181 150.763 26.4879C148.644 30.6748 141.247 28.0419 136.201 27.7949C130.656 27.5236 127.268 35.3738 124.446 40.8296C116.969 55.2852 122.975 79.7473 123.471 111.108C123.718 126.768 115.673 145.252 112.193 158.566C109.515 168.809 119.251 182.784 122.55 195.912C125.236 201.397 128.608 205.909 132.71 209.362C134.995 211.037 137.696 212.558 142.201 215.363" stroke="#FF5C25" stroke-width="8" stroke-linecap="round"/>
<path d="M167.377 31.1068C167.073 31.1068 162.112 31.1608 153.646 32.2149C141.502 33.7271 138.221 48.097 135.952 59.5453C133.685 70.9842 128.997 86.6136 120.361 118.817C115.182 138.132 120.704 155.97 126.995 164.635C133.585 173.712 138.309 192.364 144.061 205.464C147.999 208.809 152.174 211.989 157.252 214.285C160.189 215.077 163.86 215.11 168.101 211.396" stroke="#FF5C25" stroke-width="8" stroke-linecap="round"/>
<path d="M195.724 214.794C199.443 214.794 211.432 215.56 222.072 217.736C232.301 219.828 238.945 224.54 244.167 223.321C248.837 219.78 253.178 215.771 257.48 212.73C259.682 211.276 261.925 210.003 264.68 208.239" stroke="#FF5C25" stroke-width="8" stroke-linecap="round"/>
<path d="M217.478 140.889C217.478 146.315 220.734 161.254 227.558 169.892C227.269 183.961 223.016 195.649 223.082 200.647C223.496 203.09 224.682 205.346 227.12 209.517" stroke="#FF5C25" stroke-width="8" stroke-linecap="round"/>
<path d="M154.586 151.177C154.586 158.325 157.843 176.905 163.626 185.185C164.094 187.327 163.158 189.65 160.226 192.405C157.294 195.16 152.394 198.277 145.896 201.856" stroke="#FF5C25" stroke-width="8" stroke-linecap="round"/>
<path d="M132.624 92.0827C132.624 97.5153 133.609 111.047 136.373 118.088C140.724 129.172 146.848 133.587 152.011 137.944C158.95 143.799 169.053 143.326 177.289 143.812C191.784 144.668 198.697 139.644 203.964 135.054C209.806 129.963 212.883 122.819 215.785 115.062C218.8 107.006 222.952 98.1612 224.974 90.8296C225.273 88.2419 225.276 84.6874 225.338 81.777C225.399 78.8666 225.518 76.708 225.641 74.484" stroke="#FF5C25" stroke-width="2" stroke-linecap="round"/>
<path d="M163.822 86.5414C163.822 86.5895 163.822 86.6375 163.822 88.2464C163.822 89.8553 163.822 93.0235 163.677 96.4385" stroke="#FF5C25" stroke-width="2" stroke-linecap="round"/>
<path d="M185.209 86.4359C185.209 86.484 185.209 86.5321 185.209 88.1509C185.209 89.7697 185.209 92.9579 185.391 95.4325C185.572 97.9071 185.935 99.5716 186.626 101.975" stroke="#FF5C25" stroke-width="2" stroke-linecap="round"/>
<path d="M181.948 124.577C182.403 124.577 186.108 124.577 191.964 124.025C194.347 123.473 195.538 122.369 196.577 121.11C197.616 119.851 198.468 118.469 199.346 117.047" stroke="#FF5C25" stroke-width="2" stroke-linecap="round"/>
<path d="M174.521 31.5173C174.632 30.1792 175.778 26.2998 178.41 23.2581C179.702 21.7651 182.338 22.3636 184.447 22.6605C188.943 23.2937 193.121 27.2569 197.311 31.1877C200.712 34.3793 205.467 35.7417 215.887 36.1519C222.376 36.4073 232.59 50.5739 238.098 58.6047C239.081 60.7311 240.254 63.9976 241.447 67.856C241.904 69.4812 242.062 70.4305 242.623 71.8196" stroke="#FF5C25" stroke-width="8" stroke-linecap="round"/>
<path d="M182.372 35.432C183.44 35.0549 187.206 33.0279 191.056 32.1296C192.033 31.9017 193.068 32.3789 193.901 32.9454C197.738 35.5552 198.324 42.2332 200.469 46.6648C202.794 51.4684 208.904 53.8561 214.094 56.9622C218.241 59.4448 220.136 63.3943 222.062 68.5569C225.998 79.1099 236.695 90.1179 242.496 95.0677C246.509 97.1491 248.9 99.3574 250.059 101.049C250.596 101.907 251.028 102.764 252.153 105.498" stroke="#FF5C25" stroke-width="8" stroke-linecap="round"/>
<path d="M174.256 218.217C176.255 207.803 174.276 191.344 174.31 184.405C173.848 180.772 173.952 178.692 174.278 176.969C174.603 175.247 175.134 173.922 176.144 173.176C177.153 172.43 178.598 172.268 179.689 172.89C180.78 173.511 181.766 174.804 182.029 176.352C183.584 185.472 184.606 198.445 190.541 227.91C192.737 238.811 195.214 248.886 202.515 264.296C213.697 287.896 224.663 308.357 225.473 320.997C226.392 335.313 226.482 350.343 222.555 364.175C220.204 372.455 219.222 381.527 213.21 384.742C206.413 388.378 192.836 391.834 181.757 387.383C163.358 379.993 152.249 377.594 148.902 363.471C145.942 350.983 142.713 321.088 149.509 300.169C161.086 264.534 162.636 254.472 166.753 244.608C169.646 237.676 172.102 229.435 174.256 218.217Z" fill="#FF5C25" stroke="#FF5C25" stroke-width="2" stroke-linecap="round"/>
<path d="M215.298 508.04C220.33 508.04 230.879 508.748 231.928 510.586C234.739 515.507 236.44 529.215 240.11 540.219C241.656 544.854 243.272 550.458 244.14 555.285C244.316 556.264 243.557 557.19 242.876 557.904C239.863 561.057 210.422 561.507 196.339 557.238C186.392 554.223 201.48 540.172 206.349 531.411C208.868 524.278 210.595 518.873 211.054 516.685C211.214 515.581 211.225 514.491 211.903 511.879" stroke="#FF5C25" stroke-width="8" stroke-linecap="round"/>
<path d="M164.652 508.517C169.684 508.517 180.233 509.225 181.283 511.063C184.093 515.984 185.794 529.692 189.464 540.696C191.01 545.331 192.626 550.935 193.494 555.762C193.67 556.741 192.912 557.668 192.23 558.381C189.218 561.534 159.777 561.984 145.693 557.715C135.747 554.7 150.835 540.649 155.703 531.888C158.222 524.755 159.949 519.35 160.409 517.162C160.568 516.058 160.579 514.968 161.258 512.356" stroke="#FF5C25" stroke-width="8" stroke-linecap="round"/>
<path d="M173.807 378.203C173.807 378.298 173.807 392.832 174.271 420.622C174.689 445.646 177.622 463.862 179.158 477.002C179.723 491.383 179.537 500.633 178.995 503.795C178.673 505.386 178.253 506.951 177.585 510.421" stroke="#FF5C25" stroke-width="2" stroke-linecap="round"/>
<path d="M215.446 379.381C215.446 388.068 216.503 407.304 219.97 422.433C221.35 434.601 222.169 447.442 223.3 468.936C223.632 478.484 224.1 493.147 224.583 508.254" stroke="#FF5C25" stroke-width="2" stroke-linecap="round"/>
<path d="M186.206 185.249C186.247 189.293 188.269 201.378 195.978 211.58C200.613 217.715 208.659 223.301 218.041 229.857C238.918 244.444 252.939 250.379 257.732 254C265.835 260.122 273.338 267.271 275.724 277.555C276.751 281.983 275.298 285.408 273.296 288.116C268.869 294.108 242.184 304.434 235.462 307C228.741 309.566 226.401 317.327 225.01 322.699C224.386 325.109 225.542 327.509 226.92 329.386C230.566 332.079 233.503 333.745 235.462 335.029C236.497 335.671 237.612 336.295 239.819 336.731" stroke="#FF5C25" stroke-width="2" stroke-linecap="round"/>
<path d="M170.564 188.23C169.261 188.799 164.732 191.646 159.411 198.685C156.453 202.598 152.546 210.187 147.452 221.427C142.358 232.667 136.59 247.599 131.818 258.319C120.129 284.577 111.04 290.243 105.294 293.794C99.1241 297.607 87.3756 297.472 77.8935 295.097C50.3631 288.203 36.3898 279.074 30.2322 276.5C25.7447 275.294 16.9045 271.524 7.40355 271.476C3.78427 271.605 2.60561 272.046 1.00024 272.752" stroke="#FF5C25" stroke-width="2" stroke-linecap="round"/>
</svg>
